<svg width="16" height="25" viewBox="0 0 16 25" fill="none" xmlns="http://www.w3.org/2000/svg">
<mask id="path-1-inside-1_4492_1166" fill="white">
<path fill-rule="evenodd" clip-rule="evenodd" d="M7.38891 1.81244L0.483135 14.9672C0.133579 15.6331 0.616502 16.4321 1.36855 16.4321H5.05144L4.87148 22.9452C4.81296 25.0634 7.65663 25.8062 8.64154 23.9301L15.5473 10.7753C15.8969 10.1094 15.414 9.31046 14.6619 9.31046H10.979L11.159 2.7973C11.2175 0.679133 8.37383 -0.0637244 7.38891 1.81244Z"/>
</mask>
<path fill-rule="evenodd" clip-rule="evenodd" d="M7.38891 1.81244L0.483135 14.9672C0.133579 15.6331 0.616502 16.4321 1.36855 16.4321H5.05144L4.87148 22.9452C4.81296 25.0634 7.65663 25.8062 8.64154 23.9301L15.5473 10.7753C15.8969 10.1094 15.414 9.31046 14.6619 9.31046H10.979L11.159 2.7973C11.2175 0.679133 8.37383 -0.0637244 7.38891 1.81244Z" fill="#FFDF4E"/>
<path d="M0.483135 14.9672L1.71196 15.6123L1.71196 15.6123L0.483135 14.9672ZM7.38891 1.81244L8.61774 2.45753L8.61774 2.45753L7.38891 1.81244ZM5.05144 16.4321L6.43877 16.4704L6.47817 15.0442H5.05144V16.4321ZM4.87148 22.9452L3.48415 22.9069L3.48415 22.9069L4.87148 22.9452ZM8.64154 23.9301L7.41272 23.285L7.41272 23.285L8.64154 23.9301ZM15.5473 10.7753L16.7761 11.4204L16.7761 11.4204L15.5473 10.7753ZM10.979 9.31046L9.59169 9.27213L9.55228 10.6983H10.979V9.31046ZM11.159 2.7973L12.5463 2.83563L12.5463 2.83563L11.159 2.7973ZM1.71196 15.6123L8.61774 2.45753L6.16009 1.16735L-0.745691 14.3222L1.71196 15.6123ZM1.36855 15.0442C1.66023 15.0442 1.84754 15.3541 1.71196 15.6123L-0.745691 14.3222C-1.58038 15.9122 -0.42723 17.8199 1.36855 17.8199V15.0442ZM5.05144 15.0442H1.36855V17.8199H5.05144V15.0442ZM6.25881 22.9835L6.43877 16.4704L3.66411 16.3937L3.48415 22.9069L6.25881 22.9835ZM7.41272 23.285C7.11127 23.8592 6.2409 23.6319 6.25881 22.9835L3.48415 22.9069C3.38502 26.4949 8.20198 27.7533 9.87037 24.5752L7.41272 23.285ZM14.3185 10.1302L7.41272 23.285L9.87037 24.5752L16.7761 11.4204L14.3185 10.1302ZM14.6619 10.6983C14.3702 10.6983 14.1829 10.3884 14.3185 10.1302L16.7761 11.4204C17.6108 9.83036 16.4577 7.9226 14.6619 7.9226V10.6983ZM10.979 10.6983H14.6619V7.9226H10.979V10.6983ZM9.77164 2.75897L9.59169 9.27213L12.3663 9.34879L12.5463 2.83563L9.77164 2.75897ZM8.61774 2.45753C8.91919 1.8833 9.78956 2.11065 9.77164 2.75897L12.5463 2.83563C12.6454 -0.752382 7.82847 -2.01075 6.16009 1.16735L8.61774 2.45753Z" fill="#0063A8" mask="url(#path-1-inside-1_4492_1166)"/>
</svg>
